  0
SECTION
  2
HEADER
  9
$ACADVER
  1
AC1009
  9
$INSBASE
 10
0.0
 20
0.0
 30
0.0
  9
$EXTMIN
 10
0.0
 20
0.0
 30
0.0
  9
$EXTMAX
 10
0.0
 20
0.0
 30
0.0
  0
ENDSEC
  0
SECTION
  2
TABLES
  0
TABLE
  2
VPORT
 70
1
  0
VPORT
  2
*ACTIVE
 70
0
 10
0.0
 20
0.0
 11
1.0
 21
1.0
 12
-5.0
 22
1.0
 13
0.0
 23
0.0
 14
0.1
 24
0.1
 15
0.1
 25
0.1
 16
0.0
 26
0.0
 36
1.0
 17
0.0
 27
0.0
 37
0.0
 40
10.0
 41
1.0
 42
50.0
 43
0.0
 44
0.0
 50
0.0
 51
0.0
 71
0
 72
100
 73
1
 74
1
 75
0
 76
0
 77
0
 78
0
  0
ENDTAB
  0
TABLE
  2
LTYPE
 70
8
  0
LTYPE
  2
CONTINUOUS
 70
0
  3
Solid line
 72
65
 73
0
 40
0.0
  0
LTYPE
  2
DOT
 70
0
  3
. . . . . . .
 72
65
 73
2
 40
0.25
 49
0.0
 49
-0.25
  0
LTYPE
  2
DASHED
 70
0
  3
__ __ __ __ __
 72
65
 73
2
 40
0.8
 49
0.5
 49
-0.3
  0
LTYPE
  2
DASHDOT
 70
0
  3
__ . __ . __ .
 72
65
 73
4
 40
1.0
 49
0.5
 49
-0.25
 49
0.0
 49
-0.25
  0
LTYPE
  2
DIVIDE
 70
0
  3
____ . . ____ . . 
 72
65
 73
6
 40
1.25
 49
0.5
 49
-0.25
 49
0.0
 49
-0.25
 49
0.0
 49
-0.25
  0
LTYPE
  2
BORDER
 70
0
  3
__ __ . __ __ . 
 72
65
 73
6
 40
1.75
 49
0.5
 49
-0.25
 49
0.5
 49
-0.25
 49
0.0
 49
-0.25
  0
LTYPE
  2
HIDDEN
 70
0
  3
__ __ __ __ __
 72
65
 73
2
 40
0.4
 49
0.25
 49
-0.25
  0
LTYPE
  2
CENTER
 70
0
  3
____ _ ____ _ __
 72
65
 73
4
 40
2.0
 49
1.25
 49
-0.25
 49
0.25
 49
-0.25
  0
ENDTAB
  0
TABLE
  2
LAYER
 70
1
  0
LAYER
  2
PYDXF
 70
64
 62
7
  6
continuous
  0
ENDTAB
  0
TABLE
  2
STYLE
 70
1
  0
STYLE
  2
STANDARD
 70
0
 40
0
 41
1.0
 50
0.0
 71
0
 42
1
 3
ARIAL.TTF
 4

  0
ENDTAB
  0
TABLE
  2
VIEW
 70
1
  0
VIEW
  2
BF_TOPVIEW
 70
0
 40
120.0
 10
0.0
 20
0.0
 41
200.0
 11
0.0
 21
0.0
 31
1.0
 12
0.0
 22
0.0
 32
0.0
 42
50.0
 43
0.0
 44
0.0
 50
0.0
 71
0
  0
ENDTAB
  0
ENDSEC
  0
SECTION
  2
BLOCKS
  0
ENDSEC
  0
SECTION
  2
ENTITIES
  0
LINE
  8
0
 10
0.10293331742286682
 20
-0.058000028133392334
 30
0.0
 11
0.10293331742286682
 21
-0.136400043964386
 31
0.0
  0
LINE
  8
0
 10
0.024533331394195557
 20
-0.058000028133392334
 30
0.0
 11
0.10293331742286682
 21
-0.058000028133392334
 31
0.0
  0
LINE
  8
0
 10
0.024533331394195557
 20
-0.058000028133392334
 30
0.0
 11
0.024533331394195557
 21
-0.136400043964386
 31
0.0
  0
LINE
  8
0
 10
0.10293331742286682
 20
-0.136400043964386
 30
0.0
 11
0.024533331394195557
 21
-0.136400043964386
 31
0.0
  0
LINE
  8
0
 10
0.31333333253860474
 20
0.1523999571800232
 30
0.0
 11
0.31333333253860474
 21
-0.15240007638931274
 31
0.0
  0
LINE
  8
0
 10
0.008533328771591187
 20
0.1523999571800232
 30
0.0
 11
0.31333333253860474
 21
0.1523999571800232
 31
0.0
  0
LINE
  8
0
 10
0.008533328771591187
 20
0.1523999571800232
 30
0.0
 11
0.008533328771591187
 21
-0.15240007638931274
 31
0.0
  0
LINE
  8
0
 10
0.31333333253860474
 20
-0.15240007638931274
 30
0.0
 11
0.008533328771591187
 21
-0.15240007638931274
 31
0.0
  0
LINE
  8
0
 10
0.29733335971832275
 20
0.0419999361038208
 30
0.0
 11
0.29733335971832275
 21
-0.04200005531311035
 31
0.0
  0
LINE
  8
0
 10
0.2189333289861679
 20
0.041999995708465576
 30
0.0
 11
0.29733335971832275
 21
0.0419999361038208
 31
0.0
  0
LINE
  8
0
 10
0.2189333289861679
 20
0.041999995708465576
 30
0.0
 11
0.2189333736896515
 21
-0.04200005531311035
 31
0.0
  0
LINE
  8
0
 10
0.29733335971832275
 20
-0.04200005531311035
 30
0.0
 11
0.2189333736896515
 21
-0.04200005531311035
 31
0.0
  0
LINE
  8
0
 10
0.20293332636356354
 20
0.041999995708465576
 30
0.0
 11
0.20293331146240234
 21
-0.04200005531311035
 31
0.0
  0
LINE
  8
0
 10
0.11893332004547119
 20
0.041999995708465576
 30
0.0
 11
0.20293332636356354
 21
0.041999995708465576
 31
0.0
  0
LINE
  8
0
 10
0.11893332004547119
 20
0.041999995708465576
 30
0.0
 11
0.11893332004547119
 21
-0.04200005531311035
 31
0.0
  0
LINE
  8
0
 10
0.20293331146240234
 20
-0.04200005531311035
 30
0.0
 11
0.11893332004547119
 21
-0.04200005531311035
 31
0.0
  0
LINE
  8
0
 10
0.10293331742286682
 20
0.041999995708465576
 30
0.0
 11
0.10293331742286682
 21
-0.04200005531311035
 31
0.0
  0
LINE
  8
0
 10
0.024533331394195557
 20
0.04199998080730438
 30
0.0
 11
0.024533331394195557
 21
-0.04200005531311035
 31
0.0
  0
LINE
  8
0
 10
0.10293331742286682
 20
-0.04200005531311035
 30
0.0
 11
0.024533331394195557
 21
-0.04200005531311035
 31
0.0
  0
LINE
  8
0
 10
0.29733338952064514
 20
-0.058000028133392334
 30
0.0
 11
0.29733338952064514
 21
-0.136400043964386
 31
0.0
  0
LINE
  8
0
 10
0.2189333736896515
 20
-0.058000028133392334
 30
0.0
 11
0.29733338952064514
 21
-0.058000028133392334
 31
0.0
  0
LINE
  8
0
 10
0.2189333736896515
 20
-0.058000028133392334
 30
0.0
 11
0.2189333736896515
 21
-0.136400043964386
 31
0.0
  0
LINE
  8
0
 10
0.29733338952064514
 20
-0.136400043964386
 30
0.0
 11
0.2189333736896515
 21
-0.136400043964386
 31
0.0
  0
LINE
  8
0
 10
0.20293334126472473
 20
-0.058000028133392334
 30
0.0
 11
0.20293334126472473
 21
-0.136400043964386
 31
0.0
  0
LINE
  8
0
 10
0.11893332004547119
 20
-0.058000028133392334
 30
0.0
 11
0.20293334126472473
 21
-0.058000028133392334
 31
0.0
  0
LINE
  8
0
 10
0.11893332004547119
 20
-0.058000028133392334
 30
0.0
 11
0.11893332004547119
 21
-0.136400043964386
 31
0.0
  0
LINE
  8
0
 10
0.20293334126472473
 20
-0.136400043964386
 30
0.0
 11
0.11893332004547119
 21
-0.136400043964386
 31
0.0
  0
LINE
  8
0
 10
0.29733335971832275
 20
0.06536614894866943
 30
0.0
 11
0.29733335971832275
 21
0.05799996852874756
 31
0.0
  0
LINE
  8
0
 10
0.2189333289861679
 20
0.0857805609703064
 30
0.0
 11
0.29733335971832275
 21
0.06536614894866943
 31
0.0
  0
LINE
  8
0
 10
0.2189333289861679
 20
0.0857805609703064
 30
0.0
 11
0.2189333289861679
 21
0.05799996852874756
 31
0.0
  0
LINE
  8
0
 10
0.29733335971832275
 20
0.05799996852874756
 30
0.0
 11
0.2189333289861679
 21
0.05799996852874756
 31
0.0
  0
LINE
  8
0
 10
0.20293332636356354
 20
0.08994680643081665
 30
0.0
 11
0.20293332636356354
 21
0.05799996852874756
 31
0.0
  0
LINE
  8
0
 10
0.11893333494663239
 20
0.11181938648223877
 30
0.0
 11
0.20293332636356354
 21
0.08994680643081665
 31
0.0
  0
LINE
  8
0
 10
0.11893333494663239
 20
0.11181938648223877
 30
0.0
 11
0.11893332004547119
 21
0.05799996852874756
 31
0.0
  0
LINE
  8
0
 10
0.20293332636356354
 20
0.05799996852874756
 30
0.0
 11
0.11893332004547119
 21
0.05799996852874756
 31
0.0
  0
LINE
  8
0
 10
0.10293333232402802
 20
0.11598557233810425
 30
0.0
 11
0.10293331742286682
 21
0.05799996852874756
 31
0.0
  0
LINE
  8
0
 10
0.024533331394195557
 20
0.1363999843597412
 30
0.0
 11
0.10293333232402802
 21
0.11598557233810425
 31
0.0
  0
LINE
  8
0
 10
0.024533331394195557
 20
0.1363999843597412
 30
0.0
 11
0.024533331394195557
 21
0.05799996852874756
 31
0.0
  0
LINE
  8
0
 10
0.10293331742286682
 20
0.05799996852874756
 30
0.0
 11
0.024533331394195557
 21
0.05799996852874756
 31
0.0
  0
LINE
  8
0
 10
0.024533331394195557
 20
0.04199998080730438
 30
0.0
 11
0.10293331742286682
 21
0.041999995708465576
 31
0.0
  0
ENDSEC
  0
EOF
